# xmcd
#
# Track frame offsets: 
#        150
#        9805
#        23152
#        41590
#        51185
#        67252
#        80775
#        96192
#        114172
#        129762
#        145887
#        156367
#        167915
#        174555
#
# Disc length: 2507 seconds
#
# Revision: 3
# Processed by: cddbd v1.5.2PL0 Copyright (c) Steve Scherf et al.
# Submitted via: ExactAudioCopy v0.95b4
#
DISCID=b509c90e
DTITLE=Garth Brooks - Garth Brooks and the magic of Christmas (Songs fro
DTITLE=m Call Me Claus)
DYEAR=2001
DGENRE=Christmas
TTITLE0=Call Me Claus
TTITLE1=It's the Most Wonderful Time of the Year
TTITLE2=Have Yourself a Merry Little Christmas
TTITLE3=Let It Snow
TTITLE4=Winter Wonderland
TTITLE5=Mary Had a Little Lamb
TTITLE6=The Christmas Song (Chestnuts Roasting on an Open Fire)
TTITLE7=Baby Jesus Is Born
TTITLE8=Sleigh Ride
TTITLE9=Silver Bells
TTITLE10=(There's No Place Like) Home for the Holidays
TTITLE11='Zat You, Santa Claus?
TTITLE12=The Wise Men's Journey
TTITLE13=O Little Town of Bethlehem
EXTD=YEAR: 2001 ID3G: 12
EXTT0=
EXTT1=
EXTT2=
EXTT3=
EXTT4=
EXTT5=
EXTT6=
EXTT7=
EXTT8=
EXTT9=
EXTT10=
EXTT11=
EXTT12=
EXTT13=
PLAYORDER=
